<svg width="53" height="54" viewBox="0 0 53 54" fill="none" xmlns="http://www.w3.org/2000/svg">
<path d="M6.61332 43.8456H34.9918C35.5705 43.8456 36.1255 43.6158 36.5347 43.2066C36.9439 42.7974 37.1737 42.2424 37.1737 41.6637V13.2852C37.1737 12.7065 36.9439 12.1515 36.5347 11.7424C36.1255 11.3332 35.5705 11.1033 34.9918 11.1033H24.0768V13.2852H34.9918V31.8384H24.0768V34.0203H34.9918V41.6611H20.8026V32.9307H18.6206V41.6611H6.61332V27.4745H19.7103V25.2925H16.436V22.0183H14.2541V25.2925H6.61332V13.2852H17.5283V11.1033H6.61332C6.03463 11.1033 5.47964 11.3332 5.07045 11.7424C4.66125 12.1515 4.43137 12.7065 4.43137 13.2852V41.6637C4.43137 42.2424 4.66125 42.7974 5.07045 43.2066C5.47964 43.6158 6.03463 43.8456 6.61332 43.8456Z" fill="#747783"/>
<path d="M45.1421 39.7197V14.3771L46.5382 15.7732L48.0889 14.2461L44.0498 10.186L40.0552 14.1806L41.6059 15.7313L42.9601 14.3771V39.6097L41.6059 38.2554L40.0552 39.7825L44.0943 43.8426L48.0889 39.848L46.5382 38.2973L45.1421 39.7197Z" fill="#747783"/>
</svg>
